<svg xmlns="http://www.w3.org/2000/svg" xmlns:xlink="http://www.w3.org/1999/xlink" version="1.1" id="Layer_1" x="0px" y="0px" width="100px" height="100px" viewBox="0 0 100 100" enable-background="new 0 0 100 100" xml:space="preserve">
<g>
	<path d="M50,2.869C23.971,2.869,2.869,23.969,2.869,50c0,26.031,21.102,47.131,47.131,47.131S97.131,76.031,97.131,50   C97.131,23.969,76.03,2.869,50,2.869z M49.969,13.219c4.227,0,7.655,3.432,7.655,7.656c0,4.229-3.43,7.658-7.655,7.658   c-4.229,0-7.66-3.43-7.66-7.658C42.309,16.65,45.738,13.219,49.969,13.219z M77.541,40.082l-20.277,6.15v3.891l-0.002,8.703   l4.426,4.422l12.197,12.207c2.68,2.684,2.678,7.035-0.004,9.715c-2.677,2.68-7.027,2.674-9.707-0.004L50.398,71.393l-1.574,1.574   L36.623,85.158c-2.681,2.682-7.033,2.682-9.716,0c-2.685-2.672-2.942-7.027-0.263-9.709L43,58.836V46.23l-20.013-6.148   c-3.618-1.096-5.538-4.936-4.437-8.562c1.102-3.617,5.004-5.678,8.625-4.58l8.717,2.631l14.486,4.393l14.479-4.393l8.688-2.631   c3.62-1.098,7.462,0.963,8.562,4.58C83.209,35.146,81.16,38.986,77.541,40.082z"/>
</g>
</svg>